# xmcd CD database file generated by Grip 2.91
# 
# Track frame offsets:
#       150
#       13324
#       30800
#       43708
#       55703
#       69550
#       80961
#       91810
#       102353
#       115933
#       129675
#       139530
#       148356
#       167443
#       177254
#       189802
#       204030
#       215046
#       228388
#       240007
# 
# Disc length: 3372 seconds
# 
# Revision: 3
# Processed by: cddbd v1.4b41PL1 Copyright (c) Steve Scherf et al.
# Submitted via: Grip 2.91
# 
DISCID=0b0d2a14
DTITLE=The Ozark Mountain Band - Talk It All Over With Him
DYEAR=1900
DGENRE=
TTITLE0=Talk It All Over With Him
TTITLE1=Old Rugged Cross
TTITLE2=It's Me Again Lord
TTITLE3=Little Mountain Churchhouse
TTITLE4=Amazing Grace
TTITLE5=When the Roll is Called Up Yonder
TTITLE6=Little White Church
TTITLE7=Aglow with the Spirit
TTITLE8=Leaning on the Everlasting Arms
TTITLE9=I Know Who Holds Tomorrow
TTITLE10=On the Sea of Life
TTITLE11=He Died for Me
TTITLE12=What a Friend We Have in Jesus
TTITLE13=Hallelujah I'm Ready
TTITLE14=Thomas
TTITLE15=Get in Line Brother
TTITLE16=Prayerbells in Heaven
TTITLE17=He Will Pilot Me
TTITLE18=Don't Build Your House Upon the Sand
TTITLE19=Sail On Toward Home
EXTD=
EXTT0=
EXTT1=
EXTT2=
EXTT3=
EXTT4=
EXTT5=
EXTT6=
EXTT7=
EXTT8=
EXTT9=
EXTT10=
EXTT11=
EXTT12=
EXTT13=
EXTT14=
EXTT15=
EXTT16=
EXTT17=
EXTT18=
EXTT19=
PLAYORDER=
